<svg width="24" height="25" viewBox="0 0 24 25" fill="none" xmlns="http://www.w3.org/2000/svg">
<rect x="0.705882" y="1.45588" width="22.5882" height="22.5882" rx="11.2941" stroke="#242424" stroke-width="1.41176"/>
<path d="M10.8769 17.9453V9.32409H12.5995V17.9453H10.8769ZM12.4567 7.80784C12.2608 7.99836 12.0227 8.09362 11.7422 8.09362C11.4617 8.09362 11.2235 7.99836 11.0277 7.80784C10.8319 7.61202 10.734 7.37651 10.734 7.10131C10.734 6.82082 10.8319 6.58531 11.0277 6.39478C11.2235 6.20426 11.4617 6.109 11.7422 6.109C12.0227 6.109 12.2608 6.20426 12.4567 6.39478C12.6525 6.58531 12.7504 6.82082 12.7504 7.10131C12.7504 7.37651 12.6525 7.61202 12.4567 7.80784Z" fill="#242424"/>
</svg>
