<svg width="25" height="25" viewBox="0 0 25 25" fill="none" xmlns="http://www.w3.org/2000/svg">
<path fill-rule="evenodd" clip-rule="evenodd" d="M0.710938 12.5C0.710938 5.98908 5.98908 0.710938 12.5 0.710938C19.0109 0.710938 24.2891 5.98908 24.2891 12.5C24.2891 19.0109 19.0109 24.2891 12.5 24.2891C5.98908 24.2891 0.710938 19.0109 0.710938 12.5ZM12.5 2.67578C7.07423 2.67578 2.67578 7.07423 2.67578 12.5C2.67578 17.9258 7.07423 22.3242 12.5 22.3242C17.9258 22.3242 22.3242 17.9258 22.3242 12.5C22.3242 7.07423 17.9258 2.67578 12.5 2.67578Z" fill="#4F72B1"/>
<path fill-rule="evenodd" clip-rule="evenodd" d="M18.5091 9.25853C18.8873 9.64756 18.8785 10.2695 18.4895 10.6478L12.2273 16.736C11.3962 17.544 10.0757 17.5526 9.23424 16.7554L6.32239 13.9968C5.92851 13.6236 5.9117 13.0018 6.28486 12.6079C6.65801 12.2141 7.27982 12.1972 7.6737 12.5704L10.5856 15.329C10.662 15.4015 10.7821 15.4007 10.8576 15.3272L17.1199 9.23897C17.5089 8.86075 18.1309 8.86951 18.5091 9.25853Z" fill="#4F72B1"/>
</svg>
